# xmcd
#
# Track frame offsets: 
#        150
#        18185
#        34162
#        66150
#        87452
#        116852
#        151407
#        166830
#        184117
#
# Disc length: 2579 seconds
#
# Revision: 20
# Processed by: cddbd v1.5.2PL0 Copyright (c) Steve Scherf et al.
# Submitted via: ExactAudioCopy v1.3
#
DISCID=6f0a1109
DTITLE=Pink Floyd - The Dark Side Of The Moon (TOCP-65740)
DYEAR=1973
DGENRE=Progressive Rock
TTITLE0=Speak To Me - Breathe In The Air
TTITLE1=On The Run
TTITLE2=Time
TTITLE3=The Great Gig In The Sky
TTITLE4=Money
TTITLE5=Us And Them
TTITLE6=Any Colour You Like
TTITLE7=Brain Damage
TTITLE8=Eclipse
EXTD=
EXTT0=
EXTT1=
EXTT2=
EXTT3=
EXTT4=
EXTT5=
EXTT6=
EXTT7=
EXTT8=
PLAYORDER=
